<svg width="20" height="20" viewBox="0 0 20 20" fill="none" xmlns="http://www.w3.org/2000/svg">
<path d="M16.0889 1.63355C15.7555 1.30099 15.3043 1.11335 14.8334 1.11133H4.16669C3.6952 1.11133 3.24301 1.29863 2.90962 1.63203C2.57622 1.96543 2.38892 2.41761 2.38892 2.88911V17.1113C2.38871 17.3447 2.43475 17.5759 2.52439 17.7914C2.61402 18.0069 2.74547 18.2025 2.91114 18.3669C3.2446 18.6994 3.69575 18.8871 4.16669 18.8891H14.8334C15.3049 18.8891 15.757 18.7018 16.0904 18.3684C16.4238 18.035 16.6111 17.5828 16.6111 17.1113V2.88911C16.6091 2.41816 16.4215 1.96701 16.0889 1.63355ZM15.4278 17.1113C15.4278 17.269 15.3652 17.4202 15.2537 17.5317C15.1422 17.6431 14.991 17.7058 14.8334 17.7058H4.16669C4.00904 17.7058 3.85784 17.6431 3.74636 17.5317C3.63488 17.4202 3.57225 17.269 3.57225 17.1113V2.88911C3.57225 2.73145 3.63488 2.58025 3.74636 2.46877C3.85784 2.35729 4.00904 2.29466 4.16669 2.29466H14.8334C14.991 2.29466 15.1422 2.35729 15.2537 2.46877C15.3652 2.58025 15.4278 2.73145 15.4278 2.88911V17.1113Z" fill="#454545"/>
<path d="M9.5 14.1504H13.0556V15.3337H9.5V14.1504Z" fill="#454545"/>
<path d="M5.94434 10.5938H13.0554V11.7771H5.94434V10.5938Z" fill="#454545"/>
<path d="M5.94434 7.62695H13.0554V8.81029H5.94434V7.62695Z" fill="#454545"/>
<path d="M5.94434 4.66602H13.0554V5.84935H5.94434V4.66602Z" fill="#454545"/>
</svg>
