<svg width="17" height="18" viewBox="0 0 17 18" fill="none" xmlns="http://www.w3.org/2000/svg">
<path fill-rule="evenodd" clip-rule="evenodd" d="M4.858 11.2214H0.583415C0.353415 11.2214 0.166748 11.4081 0.166748 11.6381V14.7918C0.166748 15.4656 0.434253 16.1118 0.910919 16.5885C1.38717 17.0648 2.03341 17.3327 2.70758 17.3327H13.4847C15.3343 17.3327 16.8334 15.8331 16.8334 13.9839C16.8334 10.6827 16.8334 1.08268 16.8334 1.08268C16.8334 0.852266 16.6467 0.666016 16.4167 0.666016H5.27467C5.04467 0.666016 4.858 0.852266 4.858 1.08268V11.2214ZM13.4847 16.4993C12.0955 16.4993 10.9692 15.3731 10.9692 13.9839C10.9692 13.2418 10.9538 12.4685 10.9538 11.6381C10.9813 11.3714 10.8518 11.2252 10.5372 11.2214H5.69133V1.49935H16.0001V13.9839C16.0001 15.3731 14.8738 16.4993 13.4847 16.4993ZM10.1217 12.0548H1.00008V14.7918C1.00008 15.2448 1.18009 15.6789 1.50009 15.9993C1.8205 16.3193 2.25466 16.4993 2.70758 16.4993H11.2738C10.5763 15.8856 10.1359 14.986 10.1359 13.9839C10.1359 13.3673 10.1255 12.7293 10.1217 12.0548ZM14.0709 8.28935H7.6205C7.3905 8.28935 7.20384 8.47601 7.20384 8.70601C7.20384 8.93601 7.3905 9.12268 7.6205 9.12268H14.0709C14.3009 9.12268 14.4876 8.93601 14.4876 8.70601C14.4876 8.47601 14.3009 8.28935 14.0709 8.28935ZM14.0709 5.94352H7.6205C7.3905 5.94352 7.20384 6.13018 7.20384 6.36018C7.20384 6.59018 7.3905 6.77685 7.6205 6.77685H14.0709C14.3009 6.77685 14.4876 6.59018 14.4876 6.36018C14.4876 6.13018 14.3009 5.94352 14.0709 5.94352ZM14.0709 3.59809H11.1388C10.9088 3.59809 10.7222 3.78476 10.7222 4.01476C10.7222 4.24476 10.9088 4.43143 11.1388 4.43143H14.0709C14.3009 4.43143 14.4876 4.24476 14.4876 4.01476C14.4876 3.78476 14.3009 3.59809 14.0709 3.59809Z" fill="#454545"/>
</svg>
