<svg width="20" height="20" viewBox="0 0 20 20" fill="none" xmlns="http://www.w3.org/2000/svg">
<g clip-path="url(#clip0_119_1059)">
<path d="M18.3292 2.47352C16.0117 0.140644 12.1836 0.28492 9.99874 2.72342C7.8137 0.285076 3.98582 0.140566 1.66831 2.47352C-0.637837 4.76767 -0.533225 8.55224 1.85877 10.7444C0.609335 11.8929 1.29027 13.9725 2.97589 14.1518C2.8449 15.2937 3.82455 16.352 4.97801 16.2997C5.02979 17.7901 6.70443 18.6776 7.96708 17.8908C8.43645 19.2389 10.1953 19.6404 11.2021 18.6207C11.6594 18.211 11.9196 17.6732 11.9133 17.0871C12.9467 17.0879 13.8485 16.1753 13.835 15.1415C14.8672 15.1546 15.793 14.2505 15.7802 13.1963C16.8489 13.2098 17.7881 12.2474 17.7244 11.1587L18.3292 10.5539C20.5569 8.32622 20.5569 4.70127 18.3292 2.47352ZM2.38761 12.2005C2.38761 11.9896 2.46972 11.7914 2.6188 11.6423L3.16996 11.0912C3.31904 10.9421 3.51728 10.86 3.7281 10.86C4.42873 10.8608 4.78114 11.7115 4.28622 12.2075C4.16527 12.3285 3.85913 12.6344 3.73467 12.759C3.23881 13.2533 2.38824 12.9009 2.38761 12.2005ZM4.36949 14.8984C4.06335 14.6046 4.06324 14.0759 4.36949 13.7821L4.92068 13.231C5.06973 13.0819 5.26793 12.9998 5.47876 12.9998C6.1761 12.9969 6.5314 13.8543 6.03726 14.3468C6.03722 14.347 5.55054 14.8335 5.55046 14.8336C5.2507 15.1918 4.70263 15.2352 4.36949 14.8984ZM6.93773 17.0099C6.51354 17.0186 6.1396 16.6449 6.1484 16.2206C6.1484 16.01 6.23038 15.812 6.37915 15.6629C6.41479 15.627 6.91471 15.1277 6.9307 15.1114C7.22452 14.8052 7.75321 14.8051 8.047 15.1114C8.35466 15.4191 8.3547 15.9199 8.047 16.2276L7.4958 16.7787C7.34672 16.9278 7.14856 17.0099 6.93773 17.0099ZM10.5109 17.6541L10.3731 17.7918C10.2241 17.9409 10.0259 18.023 9.81508 18.023C9.11738 18.0258 8.76224 17.168 9.25693 16.6755L9.39468 16.5378C9.68846 16.2316 10.2171 16.2315 10.5109 16.5378H10.5109C10.8187 16.8456 10.8187 17.3463 10.5109 17.6541ZM16.3223 11.7941C16.0146 12.1018 15.5139 12.1018 15.2061 11.7941L13.8284 10.4164L13.1429 9.73087L12.3139 10.5598L14.3771 12.6231C14.5262 12.7721 14.6083 12.9703 14.6083 13.1811C14.6083 13.392 14.5262 13.5902 14.3771 13.7393C14.0694 14.047 13.5686 14.047 13.2608 13.7393L11.9318 12.4102L11.1952 11.6736L10.3663 12.5026L12.4319 14.5682C12.581 14.7173 12.6631 14.9155 12.6631 15.1263C12.6718 15.5505 12.298 15.9244 11.8738 15.9156C11.663 15.9156 11.4647 15.8335 11.3156 15.6844L11.315 15.685C10.8189 15.196 10.062 15.0135 9.39624 15.2142C9.31527 14.8724 9.14204 14.5483 8.87603 14.2822C8.4806 13.8868 7.95692 13.6964 7.43765 13.7098C7.41862 13.2342 7.22827 12.7642 6.86594 12.4018H6.8659C6.5432 12.0791 6.12784 11.8829 5.67981 11.8375C5.84351 10.2539 4.09286 9.14674 2.73158 9.95928C0.766663 8.22622 0.626451 5.15887 2.49727 3.30236C4.36007 1.42443 7.43828 1.57566 9.16974 3.5523L8.32312 4.39893C7.42472 5.29737 7.42472 6.75927 8.32312 7.65775C9.2216 8.55615 10.6835 8.55615 11.5819 7.65775L12.4421 6.79757L16.3223 10.6778C16.6285 10.9716 16.6285 11.5004 16.3223 11.7941ZM17.5002 9.72505L17.2594 9.96585C17.2251 9.92568 17.1891 9.88664 17.1513 9.84889L12.4421 5.13965L10.753 6.82887C10.3117 7.27022 9.59347 7.27029 9.15208 6.82887C8.71073 6.38748 8.71073 5.66935 9.15208 5.22796L11.0776 3.30248C15.5133 -0.781087 21.5837 5.28959 17.5002 9.72505Z" fill="#454545"/>
</g>
<defs>
<clipPath id="clip0_119_1059">
<rect width="20" height="20" fill="white"/>
</clipPath>
</defs>
</svg>
