<svg width="93" height="93" viewBox="0 0 93 93" fill="none" xmlns="http://www.w3.org/2000/svg">
    <rect width="93" height="93" fill="#434343" />
    <g id="Group 35745">
        <g id="Rectangle 56">
            <rect x="-130" y="-38" width="354" height="234" rx="12" fill="white" />
            <rect x="-129.5" y="-37.5" width="353" height="233" rx="11.5" stroke="#F1D9A0"
                stroke-opacity="0.35" />
        </g>
        <g id="Group 35744">
            <circle id="Ellipse 23" cx="46.5" cy="46.5" r="46" stroke="#249046" />
            <g id="Ellipse 22" filter="url(#filter0_i_0_1)">
                <circle cx="46.5" cy="46.5" r="42.5" fill="url(#paint0_linear_0_1)" />
            </g>
            <path id="Vector"
                d="M38.2303 58.1793L28.6384 48.1594C27.5696 47.0429 25.8704 47.0429 24.8016 48.1594C23.7328 49.2759 23.7328 51.0509 24.8016 52.1674L36.2845 64.1626C37.3533 65.2791 39.0798 65.2791 40.1486 64.1626L69.1984 33.8453C70.2672 32.7288 70.2672 30.9539 69.1984 29.8374C68.1296 28.7209 66.4304 28.7209 65.3616 29.8374L38.2303 58.1793Z"
                fill="url(#paint1_linear_0_1)" />
        </g>
    </g>
    <defs>
        <filter id="filter0_i_0_1" x="4" y="4" width="85" height="89" filterUnits="userSpaceOnUse"
            color-interpolation-filters="sRGB">
            <feFlood flood-opacity="0" result="BackgroundImageFix" />
            <feBlend mode="normal" in="SourceGraphic" in2="BackgroundImageFix" result="shape" />
            <feColorMatrix in="SourceAlpha" type="matrix"
                values="0 0 0 0 0 0 0 0 0 0 0 0 0 0 0 0 0 0 127 0" result="hardAlpha" />
            <feOffset dy="4" />
            <feGaussianBlur stdDeviation="2" />
            <feComposite in2="hardAlpha" operator="arithmetic" k2="-1" k3="1" />
            <feColorMatrix type="matrix" values="0 0 0 0 1 0 0 0 0 1 0 0 0 0 1 0 0 0 0.25 0" />
            <feBlend mode="normal" in2="shape" result="effect1_innerShadow_0_1" />
        </filter>
        <linearGradient id="paint0_linear_0_1" x1="93.6114" y1="31.2068" x2="46.5" y2="89"
            gradientUnits="userSpaceOnUse">
            <stop stop-color="#249046" />
            <stop offset="1" stop-color="#249046" />
        </linearGradient>
        <linearGradient id="paint1_linear_0_1" x1="-1.39107" y1="43.3206" x2="47.5049" y2="63.7943"
            gradientUnits="userSpaceOnUse">
            <stop stop-color="white" />
            <stop offset="1" stop-color="white" />
        </linearGradient>
    </defs>
</svg>
